<svg width="150" height="150" version="1.1" xmlns="http://www.w3.org/2000/svg" desc="Created with imagetracer.js version 1.2.6" ><path fill="rgb(0,0,0)" stroke="rgb(0,0,0)" stroke-width="1" opacity="0" d="M 0 0 L 150 0 L 150 150 L 0 150 L 0 0 Z M 74 1 L 48 27 L 73 51 L 74 51 L 74 1 Z M 78 1 L 78 102 L 80 102 L 129 53 L 129 51 L 80 1 L 78 1 Z M 46 29 L 20 56 L 46 80 L 71 55 L 46 29 Z M 90 97 L 64 123 L 90 148 L 90 97 Z " /><path fill="rgb(0,0,0)" stroke="rgb(0,0,0)" stroke-width="1" opacity="0.8392156862745098" d="M 72.5 2 L 74 2.5 L 74 50.5 L 49 26.5 L 72.5 2 Z M 73 3 L 50 27 L 73 49 L 73 3 Z " /><path fill="rgb(0,0,0)" stroke="rgb(0,0,0)" stroke-width="1" opacity="0.8392156862745098" d="M 44.5 30 L 70 54.5 L 45.5 31 L 20.5 55 L 44.5 30 Z " /><path fill="rgb(0,0,0)" stroke="rgb(0,0,0)" stroke-width="1" opacity="0.8392156862745098" d="M 128.5 51 L 79.5 101 L 128.5 51 Z " /><path fill="rgb(0,0,0)" stroke="rgb(0,0,0)" stroke-width="1" opacity="0.8392156862745098" d="M 89.5 98 L 90 146.5 L 89 146.5 L 89.5 98 Z " /><path fill="rgb(0,0,0)" stroke="rgb(0,0,0)" stroke-width="1" opacity="1" d="M 79.5 2 L 128 51.5 L 79 99.5 L 79.5 2 Z " /><path fill="rgb(0,0,0)" stroke="rgb(0,0,0)" stroke-width="1" opacity="1" d="M 72.5 3 L 73 48.5 L 50 26.5 L 72.5 3 Z " /><path fill="rgb(0,0,0)" stroke="rgb(0,0,0)" stroke-width="1" opacity="1" d="M 44.5 31 L 69 54.5 L 45.5 79 L 21 55.5 L 44.5 31 Z " /><path fill="rgb(0,0,0)" stroke="rgb(0,0,0)" stroke-width="1" opacity="1" d="M 88.5 99 L 89 145.5 L 65 122.5 L 88.5 99 Z " /><path fill="rgb(0,0,0)" stroke="rgb(0,0,0)" stroke-width="1" opacity="0.27450980392156865" d="M 78 1 L 79.5 1 L 129 50.5 L 79 2.5 L 78.5 101 L 78 1 Z " /><path fill="rgb(0,0,0)" stroke="rgb(0,0,0)" stroke-width="1" opacity="0.27450980392156865" d="M 20.5 55 L 45.5 79 L 70 55.5 L 44.5 80 L 20.5 55 Z " /><path fill="rgb(0,0,0)" stroke="rgb(0,0,0)" stroke-width="1" opacity="0.27450980392156865" d="M 88.5 98 L 65.5 122 L 88.5 98 Z " /><path fill="rgb(0,0,0)" stroke="rgb(0,0,0)" stroke-width="1" opacity="0.27450980392156865" d="M 65.5 123 L 89.5 148 L 65.5 123 Z " /><path fill="rgb(0,0,0)" stroke="rgb(0,0,0)" stroke-width="1" opacity="0.047058823529411764" d="M 48.5 26 L 72.5 51 L 48.5 26 Z " /><path fill="rgb(0,0,0)" stroke="rgb(0,0,0)" stroke-width="1" opacity="0.047058823529411764" d="M 45.5 29 L 70.5 55 L 45.5 29 Z " /><path fill="rgb(0,0,0)" stroke="rgb(0,0,0)" stroke-width="1" opacity="0.047058823529411764" d="M 128.5 52 L 79.5 102 L 78 101.5 L 128.5 52 Z " /></svg>